# xmcd CD database file
#
# Track frame offsets:
#	150
#	14162
#	35835
#	64222
#	86702
#	114837
#	130540
#	159427
#
# Disc length: 2524 seconds
#
# Revision: 0
# Processed by: cddbd v1.4PL0 Copyright (c) Steve Scherf et al.
# Submitted via: CDex 1.51
#
DISCID=6509da08
DTITLE=Various Artist - Latin Jazz Highlights vol 6
DYEAR=1900
DGENRE=Jazz
TTITLE0=Mario Bauza and his Afro-Cuban Orchestra - Cubauza
TTITLE1=Patato and Afrojazzia - Cute
TTITLE2=Paquito d'Rivera and The United Nation Orchestra - Alma Llanera
TTITLE3=Bebo Valdes - Al Dizzy Gillespie
TTITLE4=Giovanni Hidalgo - Villa Hidalgo
TTITLE5=Seis del Solar - Last of the Mo-Ricans
TTITLE6=Mario Bauza and his Afro-Cuban Orchestra - Chano
TTITLE7=Paquito d'Rivera and The United Nation Orchestra - Snow Samba
EXTD=
EXTT0=
EXTT1=
EXTT2=
EXTT3=
EXTT4=
EXTT5=
EXTT6=
EXTT7=
PLAYORDER=
